<svg width="110" height="85" viewBox="0 0 110 85" fill="none" xmlns="http://www.w3.org/2000/svg">
<path d="M93.0739 7.06402C86.107 3.77113 78.564 1.38113 70.7066 0.000244301C70.6377 -0.00198957 70.5692 0.0111187 70.5058 0.0386477C70.4425 0.0661766 70.3858 0.107458 70.3399 0.159579C69.397 1.91224 68.297 4.19602 67.5637 5.94869C59.2296 4.67402 50.7542 4.67402 42.4201 5.94869C41.6868 4.14291 40.5867 1.91224 39.5915 0.159579C39.5391 0.0533565 39.3819 0.000244301 39.2248 0.000244301C31.3674 1.38113 23.8768 3.77113 16.8575 7.06402C16.8051 7.06402 16.7527 7.11713 16.7004 7.17024C2.45236 28.7865 -1.47632 49.8184 0.461825 70.638C0.461825 70.7442 0.514207 70.8504 0.618972 70.9036C10.0478 77.9142 19.11 82.1631 28.0673 84.978C28.2245 85.0311 28.3816 84.978 28.434 84.8718C30.5293 81.9507 32.4151 78.8702 34.0389 75.6304C34.1437 75.418 34.0389 75.2056 33.8294 75.1524C30.8436 73.984 28.015 72.6031 25.2387 71.0098C25.0292 70.9036 25.0292 70.5849 25.1863 70.4256C25.7625 70.0007 26.3387 69.5227 26.9149 69.0978C27.0197 68.9916 27.1768 68.9916 27.2816 69.0447C45.3012 77.3831 64.735 77.3831 82.545 69.0447C82.6498 68.9916 82.8069 68.9916 82.9117 69.0978C83.4879 69.5758 84.0641 70.0007 84.6403 70.4787C84.8498 70.638 84.8498 70.9567 84.5879 71.0629C81.8641 72.7093 78.983 74.0371 75.9972 75.2056C75.7877 75.2587 75.7353 75.5242 75.7877 75.6836C77.4639 78.9233 79.3497 82.0038 81.3926 84.9249C81.5498 84.978 81.7069 85.0311 81.8641 84.978C90.8738 82.1631 99.936 77.9142 109.365 70.9036C109.47 70.8504 109.522 70.7442 109.522 70.638C111.827 46.5787 105.698 25.706 93.2834 7.17024C93.231 7.11713 93.1786 7.06402 93.0739 7.06402ZM36.7628 57.9444C31.3674 57.9444 26.8625 52.8989 26.8625 46.6849C26.8625 40.4709 31.2627 35.4253 36.7628 35.4253C42.3154 35.4253 46.7155 40.524 46.6631 46.6849C46.6631 52.8989 42.263 57.9444 36.7628 57.9444ZM73.2733 57.9444C67.878 57.9444 63.3731 52.8989 63.3731 46.6849C63.3731 40.4709 67.7732 35.4253 73.2733 35.4253C78.8259 35.4253 83.226 40.524 83.1736 46.6849C83.1736 52.8989 78.8259 57.9444 73.2733 57.9444Z" fill="#318FFF"/>
</svg>
