<svg width="14" height="16" viewBox="0 0 14 16" fill="none" xmlns="http://www.w3.org/2000/svg">
<path d="M11.59 5.64706H10V0.941176C10 0.423529 9.55 0 9 0H5C4.45 0 4 0.423529 4 0.941176V5.64706H2.41C1.52 5.64706 1.07 6.66353 1.7 7.25647L6.29 11.5765C6.68 11.9435 7.31 11.9435 7.7 11.5765L12.29 7.25647C12.92 6.66353 12.48 5.64706 11.59 5.64706ZM0 15.0588C0 15.5765 0.45 16 1 16H13C13.55 16 14 15.5765 14 15.0588C14 14.5412 13.55 14.1176 13 14.1176H1C0.45 14.1176 0 14.5412 0 15.0588Z" fill="white"/>
</svg>
