<svg width="20" height="19" viewBox="0 0 20 19" fill="none" xmlns="http://www.w3.org/2000/svg">
<path d="M5 16C4.71667 16 4.479 15.904 4.287 15.712C4.095 15.52 3.99933 15.2827 4 15V13H17V4H19C19.2833 4 19.521 4.096 19.713 4.288C19.905 4.48 20.0007 4.71734 20 5V17.575C20 18.025 19.7957 18.3377 19.387 18.513C18.9783 18.6883 18.616 18.6173 18.3 18.3L16 16H5ZM4 11L1.7 13.3C1.38334 13.6167 1.02067 13.6877 0.612002 13.513C0.203335 13.3383 -0.000665038 13.0257 1.62866e-06 12.575V1C1.62866e-06 0.71667 0.0960017 0.479003 0.288002 0.287003C0.480002 0.0950034 0.717335 -0.000663206 1 3.46021e-06H14C14.2833 3.46021e-06 14.521 0.0960036 14.713 0.288004C14.905 0.480004 15.0007 0.717337 15 1V10C15 10.2833 14.904 10.521 14.712 10.713C14.52 10.905 14.2827 11.0007 14 11H4Z" fill="#8FBFF9" fill-opacity="0.36"/>
</svg>
