<svg width="102" height="102" viewBox="0 0 102 102" fill="none" xmlns="http://www.w3.org/2000/svg">
<path d="M51 0C37.1358 0 35.408 0.0669459 29.9822 0.296475C24.5341 0.564258 20.8489 1.40905 17.5972 2.67146C14.2435 3.98487 11.3872 5.72865 8.56588 8.56588C5.72547 11.3872 3.96575 14.2435 2.67146 17.5972C1.40905 20.8489 0.564258 24.5341 0.296475 29.9822C0.0510064 35.4112 0 37.1358 0 51C0 64.8642 0.0669459 66.592 0.296475 72.0178C0.564258 77.45 1.40905 81.1511 2.67146 84.4028C3.98487 87.7565 5.72865 90.6128 8.56588 93.4341C11.3872 96.2745 14.2435 98.0343 17.5972 99.3285C20.8489 100.575 24.55 101.436 29.9822 101.704C35.4112 101.949 37.1358 102 51 102C64.8642 102 66.592 101.933 72.0178 101.704C77.45 101.436 81.1511 100.572 84.4028 99.3285C87.7565 98.0151 90.6128 96.2713 93.4341 93.4341C96.2745 90.6128 98.0343 87.7724 99.3285 84.4028C100.575 81.1511 101.436 77.45 101.704 72.0178C101.949 66.5888 102 64.8642 102 51C102 37.1358 101.933 35.408 101.704 29.9822C101.436 24.55 100.572 20.8297 99.3285 17.5972C98.0151 14.2435 96.2714 11.3872 93.4341 8.56588C90.6128 5.72547 87.7724 3.96575 84.4028 2.67146C81.1511 1.40905 77.45 0.564258 72.0178 0.296475C66.5888 0.0510064 64.8642 0 51 0ZM51 9.18115C64.6155 9.18115 66.2413 9.24809 71.6225 9.47762C76.5861 9.71034 79.2894 10.5392 81.0842 11.2405C83.4783 12.1682 85.152 13.2648 86.9627 15.0564C88.7383 16.8321 89.835 18.5249 90.7627 20.919C91.464 22.7138 92.2928 25.4171 92.5256 30.3807C92.7551 35.7618 92.822 37.3909 92.822 51.0032C92.822 64.6155 92.7551 66.2445 92.5064 71.6257C92.2387 76.5893 91.4098 79.2926 90.7117 81.0874C89.7457 83.4815 88.6682 85.1551 86.8894 86.9659C85.0946 88.7415 83.3859 89.8382 81.0109 90.7658C79.2384 91.4672 76.4968 92.296 71.5141 92.5287C66.1043 92.7583 64.5103 92.8252 50.8597 92.8252C37.2092 92.8252 35.6184 92.7583 30.2022 92.5096C25.2386 92.2418 22.5002 91.413 20.7054 90.7148C18.2826 89.7489 16.6217 88.6714 14.8429 86.8925C13.0481 85.0978 11.9068 83.389 11.0269 81.0141C10.3129 79.2416 9.49675 76.5 9.23215 71.5173C9.05044 66.1712 8.96437 64.5135 8.96437 50.9267C8.96437 37.3462 9.05044 35.6853 9.23215 30.2723C9.49675 25.2896 10.3129 22.5544 11.0269 20.7755C11.9068 18.3495 13.0513 16.6918 14.8429 14.897C16.6185 13.1214 18.2826 11.9737 20.7054 11.0748C22.5002 10.3766 25.1716 9.54776 30.1543 9.2991C35.5642 9.10464 37.1581 9.0345 50.7896 9.0345L51 9.18115ZM51 24.8242C36.5238 24.8242 24.8178 36.5461 24.8178 51.0064C24.8178 65.4826 36.5397 77.1886 51 77.1886C65.4762 77.1886 77.1822 65.4667 77.1822 51.0064C77.1822 36.5301 65.4603 24.8242 51 24.8242ZM51 68.0074C41.6021 68.0074 33.9989 60.4043 33.9989 51.0064C33.9989 41.6085 41.6021 34.0053 51 34.0053C60.3979 34.0053 68.0011 41.6085 68.0011 51.0064C68.0011 60.4043 60.3979 68.0074 51 68.0074ZM84.3582 23.7785C84.3582 27.1673 81.6006 29.9025 78.2278 29.9025C74.8391 29.9025 72.1039 27.1641 72.1039 23.7785C72.1039 20.4089 74.8582 17.6673 78.2278 17.6673C81.5975 17.6673 84.3582 20.4089 84.3582 23.7785Z" fill="#318FFF"/>
</svg>
