<svg width="79" height="89" viewBox="0 0 79 89" fill="none" xmlns="http://www.w3.org/2000/svg">
<path d="M50.7975 40.9609C50.7975 38.5676 48.1186 37.1513 46.1411 38.4989L41.6589 41.5535C40.8447 42.1083 40.3574 43.03 40.3574 44.0154V48.6711C40.3574 51.0579 43.0237 52.4757 45.0023 51.1409L49.4845 48.117C50.3055 47.5633 50.7975 46.6375 50.7975 45.6472V40.9609Z" fill="#318FFF"/>
<path d="M50.7975 28.3354C50.7975 25.9408 48.1158 24.5246 46.1385 25.8752L41.6564 28.9366C40.8436 29.4918 40.3574 30.4125 40.3574 31.3969V36.0742C40.3574 38.4625 43.0266 39.8799 45.0048 38.5422L49.4871 35.5116C50.3066 34.9575 50.7975 34.0328 50.7975 33.0435V28.3354Z" fill="#318FFF"/>
<path d="M50.7975 15.5308C50.7975 13.1361 48.1158 11.72 46.1385 13.0705L41.6564 16.1319C40.8436 16.6871 40.3574 17.6078 40.3574 18.5922V23.2695C40.3574 25.6578 43.0266 27.0752 45.0048 25.7377L49.4871 22.7069C50.3066 22.1529 50.7975 21.2281 50.7975 20.2388V15.5308Z" fill="#318FFF"/>
<path d="M50.7975 2.98437C50.7975 0.589705 48.1158 -0.826415 46.1385 0.524113L41.6564 3.58558C40.8436 4.14071 40.3574 5.06151 40.3574 6.04583V10.7231C40.3574 13.1114 43.0266 14.5289 45.0048 13.1912L49.4871 10.1605C50.3066 9.60646 50.7975 8.68169 50.7975 7.69242V2.98437Z" fill="#318FFF"/>
<path d="M29.0151 53.6362C29.0151 51.243 31.694 49.8266 33.6716 51.1742L38.1537 54.2287C38.9679 54.7836 39.4552 55.7053 39.4552 56.6908V61.3463C39.4552 63.7332 36.7889 65.151 34.8104 63.8162L30.3281 60.7923C29.5072 60.2385 29.0151 59.3128 29.0151 58.3225V53.6362Z" fill="#318FFF"/>
<path d="M29.0151 41.0469C29.0151 38.6537 31.694 37.2372 33.6716 38.5848L38.1537 41.6394C38.9679 42.1942 39.4552 43.1159 39.4552 44.1013V48.757C39.4552 51.1439 36.7889 52.5616 34.8104 51.2268L30.3281 48.203C29.5072 47.6492 29.0151 46.7235 29.0151 45.7331V41.0469Z" fill="#318FFF"/>
<path d="M29.0151 28.4214C29.0151 26.0267 31.6969 24.6106 33.6741 25.9611L38.1563 29.0225C38.9691 29.5777 39.4552 30.4985 39.4552 31.4828V36.1602C39.4552 38.5485 36.7861 39.9659 34.8078 38.6283L30.3256 35.5975C29.5062 35.0435 29.0151 34.1188 29.0151 33.1294V28.4214Z" fill="#318FFF"/>
<path d="M29.0151 15.6167C29.0151 13.222 31.6969 11.8059 33.6741 13.1565L38.1563 16.218C38.9691 16.7731 39.4552 17.6939 39.4552 18.6781V23.3555C39.4552 25.7438 36.7861 27.1613 34.8078 25.8236L30.3256 22.7929C29.5062 22.2388 29.0151 21.3141 29.0151 20.3247V15.6167Z" fill="#318FFF"/>
<path d="M29.0151 2.98437C29.0151 0.589705 31.6969 -0.826415 33.6741 0.524113L38.1563 3.58558C38.9691 4.14071 39.4552 5.06151 39.4552 6.04583V10.7231C39.4552 13.1114 36.7861 14.5289 34.8078 13.1912L30.3256 10.1605C29.5062 9.60646 29.0151 8.68169 29.0151 7.69242V2.98437Z" fill="#318FFF"/>
<path d="M78.4777 65.4593V30.3958C78.4777 28.9306 77.804 27.5468 76.6506 26.6432L63.5662 16.3928C60.4379 13.9419 55.8606 16.171 55.8606 20.1453V57.545C55.8606 59.1117 55.0909 60.5783 53.8014 61.4682L46.683 66.3811C45.3936 67.271 44.6239 68.7377 44.6239 70.3045V80.8624V84.2243C44.6239 88.1824 49.1681 90.4162 52.3016 87.9986L76.6228 69.2335C77.7926 68.331 78.4777 66.9369 78.4777 65.4593Z" fill="#318FFF"/>
<path d="M0 65.4593V30.3958C0 28.9306 0.673777 27.5468 1.82712 26.6432L14.9115 16.3928C18.0399 13.9419 22.6171 16.171 22.6171 20.1453V57.545C22.6171 59.1117 23.3869 60.5783 24.6763 61.4682L31.7947 66.3811C33.0841 67.271 33.8539 68.7377 33.8539 70.3045V84.2243C33.8539 88.1824 29.3096 90.4162 26.1761 87.9986L1.85494 69.2335C0.685148 68.331 0 66.9369 0 65.4593Z" fill="#318FFF"/>
<path d="M50.7975 53.5503C50.7975 51.1571 48.1186 49.7406 46.1411 51.0882L41.6589 54.1428C40.8447 54.6977 40.3574 55.6193 40.3574 56.6048V61.2604C40.3574 63.6473 43.0237 65.0651 45.0023 63.7302L49.4845 60.7064C50.3055 60.1526 50.7975 59.2269 50.7975 58.2366V53.5503Z" fill="#318FFF"/>
</svg>
