<svg width="163" height="67" viewBox="0 0 163 67" fill="none" xmlns="http://www.w3.org/2000/svg">
<path d="M38.2408 30.8357C38.2408 29.0339 36.2241 27.9677 34.7355 28.9822L31.3612 31.2817C30.7482 31.6994 30.3814 32.3932 30.3814 33.1351V36.6399C30.3814 38.4368 32.3886 39.5041 33.8782 38.4992L37.2524 36.2228C37.8704 35.8059 38.2408 35.109 38.2408 34.3635V30.8357Z" fill="#318FFF"/>
<path d="M38.2408 21.3311C38.2408 19.5284 36.222 18.4624 34.7335 19.4791L31.3593 21.7837C30.7474 22.2017 30.3814 22.8948 30.3814 23.6358V27.157C30.3814 28.9549 32.3908 30.022 33.88 29.0149L37.2543 26.7334C37.8712 26.3163 38.2408 25.6202 38.2408 24.8754V21.3311Z" fill="#318FFF"/>
<path d="M38.2408 11.6919C38.2408 9.88912 36.222 8.82306 34.7335 9.83978L31.3593 12.1444C30.7474 12.5624 30.3814 13.2555 30.3814 13.9965V17.5177C30.3814 19.3156 32.3908 20.3827 33.88 19.3757L37.2543 17.0941C37.8712 16.6771 38.2408 15.9809 38.2408 15.2361V11.6919Z" fill="#318FFF"/>
<path d="M38.2408 2.24666C38.2408 0.443935 36.222 -0.622132 34.7335 0.394557L31.3593 2.69926C30.7474 3.11717 30.3814 3.81035 30.3814 4.55135V8.07244C30.3814 9.87038 32.3908 10.9375 33.88 9.93048L37.2543 7.64891C37.8712 7.23183 38.2408 6.53566 38.2408 5.79092V2.24666Z" fill="#318FFF"/>
<path d="M21.8428 40.3779C21.8428 38.5763 23.8595 37.5099 25.3483 38.5244L28.7225 40.8239C29.3354 41.2416 29.7022 41.9355 29.7022 42.6774V46.1821C29.7022 47.979 27.695 49.0463 26.2056 48.0414L22.8313 45.7651C22.2133 45.3482 21.8428 44.6513 21.8428 43.9058V40.3779Z" fill="#318FFF"/>
<path d="M21.8428 30.9003C21.8428 29.0987 23.8595 28.0324 25.3483 29.0469L28.7225 31.3464C29.3354 31.7641 29.7022 32.4579 29.7022 33.1998V36.7046C29.7022 38.5015 27.695 39.5688 26.2056 38.5639L22.8313 36.2875C22.2133 35.8706 21.8428 35.1737 21.8428 34.4282V30.9003Z" fill="#318FFF"/>
<path d="M21.8428 21.3959C21.8428 19.5931 23.8617 18.527 25.3502 19.5438L28.7244 21.8484C29.3363 22.2664 29.7022 22.9595 29.7022 23.7005V27.2217C29.7022 29.0196 27.6929 30.0866 26.2036 29.0797L22.8294 26.7981C22.2125 26.381 21.8428 25.6849 21.8428 24.9401V21.3959Z" fill="#318FFF"/>
<path d="M21.8428 11.7566C21.8428 9.9538 23.8617 8.88775 25.3502 9.90446L28.7244 12.2092C29.3363 12.6271 29.7022 13.3203 29.7022 14.0612V17.5824C29.7022 19.3803 27.6929 20.4474 26.2036 19.4404L22.8294 17.1588C22.2125 16.7418 21.8428 16.0456 21.8428 15.3008V11.7566Z" fill="#318FFF"/>
<path d="M21.8428 2.24666C21.8428 0.443935 23.8617 -0.622132 25.3502 0.394557L28.7244 2.69926C29.3363 3.11717 29.7022 3.81035 29.7022 4.55135V8.07244C29.7022 9.87038 27.6929 10.9375 26.2036 9.93048L22.8294 7.64891C22.2125 7.23183 21.8428 6.53566 21.8428 5.79092V2.24666Z" fill="#318FFF"/>
<path d="M59.0787 49.2784V22.8823C59.0787 21.7792 58.5716 20.7375 57.7032 20.0573L47.8532 12.3406C45.4982 10.4956 42.0524 12.1737 42.0524 15.1656V43.3204C42.0524 44.4998 41.4729 45.6039 40.5022 46.2738L35.1434 49.9723C34.1727 50.6422 33.5932 51.7464 33.5932 52.9258V60.874V63.4049C33.5932 66.3845 37.0142 68.0662 39.3731 66.2462L57.6823 52.1196C58.563 51.4402 59.0787 50.3907 59.0787 49.2784Z" fill="#318FFF"/>
<path d="M0 49.2784V22.8823C0 21.7792 0.507225 20.7375 1.37547 20.0573L11.2255 12.3406C13.5806 10.4956 17.0264 12.1737 17.0264 15.1656V43.3204C17.0264 44.4998 17.6058 45.6039 18.5765 46.2738L23.9353 49.9723C24.906 50.6422 25.4855 51.7464 25.4855 52.9258V63.4049C25.4855 66.3845 22.0646 68.0662 19.7056 66.2462L1.39642 52.1196C0.515786 51.4402 0 50.3907 0 49.2784Z" fill="#318FFF"/>
<path d="M38.2408 40.3132C38.2408 38.5116 36.2241 37.4453 34.7355 38.4597L31.3612 40.7593C30.7482 41.177 30.3814 41.8708 30.3814 42.6126V46.1174C30.3814 47.9143 32.3886 48.9816 33.8782 47.9768L37.2524 45.7004C37.8704 45.2835 38.2408 44.5866 38.2408 43.8411V40.3132Z" fill="#318FFF"/>
<path d="M94.2 30.7L94.06 27.62L101.4 20H104.32L98.22 26.48L96.78 28.06L94.2 30.7ZM91.88 34V20H94.48V34H91.88ZM101.64 34L96.28 27.62L98 25.72L104.68 34H101.64ZM112.503 34.2C111.409 34.2 110.403 34.02 109.483 33.66C108.563 33.3 107.763 32.8 107.083 32.16C106.403 31.5067 105.876 30.7467 105.503 29.88C105.129 29 104.943 28.04 104.943 27C104.943 25.96 105.129 25.0067 105.503 24.14C105.876 23.26 106.403 22.5 107.083 21.86C107.763 21.2067 108.563 20.7 109.483 20.34C110.403 19.98 111.403 19.8 112.483 19.8C113.576 19.8 114.576 19.98 115.483 20.34C116.403 20.7 117.203 21.2067 117.883 21.86C118.563 22.5 119.089 23.26 119.463 24.14C119.836 25.0067 120.023 25.96 120.023 27C120.023 28.04 119.836 29 119.463 29.88C119.089 30.76 118.563 31.52 117.883 32.16C117.203 32.8 116.403 33.3 115.483 33.66C114.576 34.02 113.583 34.2 112.503 34.2ZM112.483 31.92C113.189 31.92 113.843 31.8 114.443 31.56C115.043 31.32 115.563 30.98 116.003 30.54C116.443 30.0867 116.783 29.5667 117.023 28.98C117.276 28.38 117.403 27.72 117.403 27C117.403 26.28 117.276 25.6267 117.023 25.04C116.783 24.44 116.443 23.92 116.003 23.48C115.563 23.0267 115.043 22.68 114.443 22.44C113.843 22.2 113.189 22.08 112.483 22.08C111.776 22.08 111.123 22.2 110.523 22.44C109.936 22.68 109.416 23.0267 108.963 23.48C108.523 23.92 108.176 24.44 107.923 25.04C107.683 25.6267 107.563 26.28 107.563 27C107.563 27.7067 107.683 28.36 107.923 28.96C108.176 29.56 108.523 30.0867 108.963 30.54C109.403 30.98 109.923 31.32 110.523 31.56C111.123 31.8 111.776 31.92 112.483 31.92ZM122.778 34V20H125.378V31.8H132.698V34H122.778ZM141.057 34.2C139.964 34.2 138.957 34.02 138.037 33.66C137.117 33.3 136.317 32.8 135.637 32.16C134.957 31.5067 134.431 30.7467 134.057 29.88C133.684 29 133.497 28.04 133.497 27C133.497 25.96 133.684 25.0067 134.057 24.14C134.431 23.26 134.957 22.5 135.637 21.86C136.317 21.2067 137.117 20.7 138.037 20.34C138.957 19.98 139.957 19.8 141.037 19.8C142.131 19.8 143.131 19.98 144.037 20.34C144.957 20.7 145.757 21.2067 146.437 21.86C147.117 22.5 147.644 23.26 148.017 24.14C148.391 25.0067 148.577 25.96 148.577 27C148.577 28.04 148.391 29 148.017 29.88C147.644 30.76 147.117 31.52 146.437 32.16C145.757 32.8 144.957 33.3 144.037 33.66C143.131 34.02 142.137 34.2 141.057 34.2ZM141.037 31.92C141.744 31.92 142.397 31.8 142.997 31.56C143.597 31.32 144.117 30.98 144.557 30.54C144.997 30.0867 145.337 29.5667 145.577 28.98C145.831 28.38 145.957 27.72 145.957 27C145.957 26.28 145.831 25.6267 145.577 25.04C145.337 24.44 144.997 23.92 144.557 23.48C144.117 23.0267 143.597 22.68 142.997 22.44C142.397 22.2 141.744 22.08 141.037 22.08C140.331 22.08 139.677 22.2 139.077 22.44C138.491 22.68 137.971 23.0267 137.517 23.48C137.077 23.92 136.731 24.44 136.477 25.04C136.237 25.6267 136.117 26.28 136.117 27C136.117 27.7067 136.237 28.36 136.477 28.96C136.731 29.56 137.077 30.0867 137.517 30.54C137.957 30.98 138.477 31.32 139.077 31.56C139.677 31.8 140.331 31.92 141.037 31.92ZM155.673 34.2C154.58 34.2 153.533 34.0467 152.533 33.74C151.533 33.42 150.74 33.0133 150.153 32.52L151.053 30.5C151.613 30.94 152.306 31.3067 153.133 31.6C153.96 31.8933 154.806 32.04 155.673 32.04C156.406 32.04 157 31.96 157.453 31.8C157.906 31.64 158.24 31.4267 158.453 31.16C158.666 30.88 158.773 30.5667 158.773 30.22C158.773 29.7933 158.62 29.4533 158.313 29.2C158.006 28.9333 157.606 28.7267 157.113 28.58C156.633 28.42 156.093 28.2733 155.493 28.14C154.906 28.0067 154.313 27.8533 153.713 27.68C153.126 27.4933 152.586 27.26 152.093 26.98C151.613 26.6867 151.22 26.3 150.913 25.82C150.606 25.34 150.453 24.7267 150.453 23.98C150.453 23.22 150.653 22.5267 151.053 21.9C151.466 21.26 152.086 20.7533 152.913 20.38C153.753 19.9933 154.813 19.8 156.093 19.8C156.933 19.8 157.766 19.9067 158.593 20.12C159.42 20.3333 160.14 20.64 160.753 21.04L159.933 23.06C159.306 22.6867 158.66 22.4133 157.993 22.24C157.326 22.0533 156.686 21.96 156.073 21.96C155.353 21.96 154.766 22.0467 154.313 22.22C153.873 22.3933 153.546 22.62 153.333 22.9C153.133 23.18 153.033 23.5 153.033 23.86C153.033 24.2867 153.18 24.6333 153.473 24.9C153.78 25.1533 154.173 25.3533 154.653 25.5C155.146 25.6467 155.693 25.7933 156.293 25.94C156.893 26.0733 157.486 26.2267 158.073 26.4C158.673 26.5733 159.213 26.8 159.693 27.08C160.186 27.36 160.58 27.74 160.873 28.22C161.18 28.7 161.333 29.3067 161.333 30.04C161.333 30.7867 161.126 31.48 160.713 32.12C160.313 32.7467 159.693 33.2533 158.853 33.64C158.013 34.0133 156.953 34.2 155.673 34.2Z" fill="white"/>
<path d="M92.222 48V38.9H95.966C96.772 38.9 97.461 39.03 98.033 39.29C98.6137 39.55 99.06 39.9227 99.372 40.408C99.684 40.8933 99.84 41.4697 99.84 42.137C99.84 42.8043 99.684 43.3807 99.372 43.866C99.06 44.3427 98.6137 44.711 98.033 44.971C97.461 45.2223 96.772 45.348 95.966 45.348H93.158L93.912 44.581V48H92.222ZM98.176 48L95.875 44.698H97.682L99.996 48H98.176ZM93.912 44.763L93.158 43.957H95.888C96.6333 43.957 97.1923 43.7967 97.565 43.476C97.9463 43.1553 98.137 42.709 98.137 42.137C98.137 41.5563 97.9463 41.11 97.565 40.798C97.1923 40.486 96.6333 40.33 95.888 40.33H93.158L93.912 39.498V44.763ZM105.995 48.13C105.284 48.13 104.63 48.013 104.032 47.779C103.434 47.545 102.914 47.22 102.472 46.804C102.03 46.3793 101.687 45.8853 101.445 45.322C101.202 44.75 101.081 44.126 101.081 43.45C101.081 42.774 101.202 42.1543 101.445 41.591C101.687 41.019 102.03 40.525 102.472 40.109C102.914 39.6843 103.434 39.355 104.032 39.121C104.63 38.887 105.28 38.77 105.982 38.77C106.692 38.77 107.342 38.887 107.932 39.121C108.53 39.355 109.05 39.6843 109.492 40.109C109.934 40.525 110.276 41.019 110.519 41.591C110.761 42.1543 110.883 42.774 110.883 43.45C110.883 44.126 110.761 44.75 110.519 45.322C110.276 45.894 109.934 46.388 109.492 46.804C109.05 47.22 108.53 47.545 107.932 47.779C107.342 48.013 106.697 48.13 105.995 48.13ZM105.982 46.648C106.441 46.648 106.866 46.57 107.256 46.414C107.646 46.258 107.984 46.037 108.27 45.751C108.556 45.4563 108.777 45.1183 108.933 44.737C109.097 44.347 109.18 43.918 109.18 43.45C109.18 42.982 109.097 42.5573 108.933 42.176C108.777 41.786 108.556 41.448 108.27 41.162C107.984 40.8673 107.646 40.642 107.256 40.486C106.866 40.33 106.441 40.252 105.982 40.252C105.522 40.252 105.098 40.33 104.708 40.486C104.326 40.642 103.988 40.8673 103.694 41.162C103.408 41.448 103.182 41.786 103.018 42.176C102.862 42.5573 102.784 42.982 102.784 43.45C102.784 43.9093 102.862 44.334 103.018 44.724C103.182 45.114 103.408 45.4563 103.694 45.751C103.98 46.037 104.318 46.258 104.708 46.414C105.098 46.57 105.522 46.648 105.982 46.648ZM112.674 48V38.9H114.364V46.57H119.122V48H112.674ZM122.016 42.683H126.54V44.074H122.016V42.683ZM122.146 46.583H127.281V48H120.456V38.9H127.099V40.317H122.146V46.583ZM129.165 48V38.9H132.909C133.715 38.9 134.404 39.03 134.976 39.29C135.557 39.55 136.003 39.9227 136.315 40.408C136.627 40.8933 136.783 41.4697 136.783 42.137C136.783 42.8043 136.627 43.3807 136.315 43.866C136.003 44.3513 135.557 44.724 134.976 44.984C134.404 45.244 133.715 45.374 132.909 45.374H130.101L130.855 44.581V48H129.165ZM130.855 44.763L130.101 43.944H132.831C133.577 43.944 134.136 43.788 134.508 43.476C134.89 43.1553 135.08 42.709 135.08 42.137C135.08 41.5563 134.89 41.11 134.508 40.798C134.136 40.486 133.577 40.33 132.831 40.33H130.101L130.855 39.498V44.763ZM138.471 48V38.9H140.161V46.57H144.919V48H138.471ZM144.979 48L149.074 38.9H150.738L154.846 48H153.078L149.555 39.797H150.231L146.721 48H144.979ZM146.864 45.894L147.319 44.568H152.233L152.688 45.894H146.864ZM157.693 48V44.399L158.07 45.439L154.118 38.9H155.925L159.097 44.165H158.083L161.281 38.9H162.945L158.993 45.439L159.383 44.399V48H157.693Z" fill="#318FFF"/>
</svg>
