<svg width="18" height="19" viewBox="0 0 18 19" fill="none" xmlns="http://www.w3.org/2000/svg">
<path d="M16.2 1.72727H15.3V0H13.5V1.72727H4.5V0H2.7V1.72727H1.8C1.32261 1.72727 0.864773 1.90925 0.527208 2.23318C0.189642 2.55711 0 2.99644 0 3.45455V17.2727C0 17.7308 0.189642 18.1702 0.527208 18.4941C0.864773 18.818 1.32261 19 1.8 19H16.2C16.6774 19 17.1352 18.818 17.4728 18.4941C17.8104 18.1702 18 17.7308 18 17.2727V3.45455C18 2.99644 17.8104 2.55711 17.4728 2.23318C17.1352 1.90925 16.6774 1.72727 16.2 1.72727ZM4.977 17.2727H1.8V14.2241L10.269 6.09727L13.446 9.14591L4.977 17.2727ZM15.948 6.745L14.292 8.33409L11.115 5.28545L12.78 3.69636C12.8572 3.6201 12.9495 3.55948 13.0515 3.51808C13.1536 3.47669 13.2632 3.45535 13.374 3.45535C13.4848 3.45535 13.5944 3.47669 13.6965 3.51808C13.7985 3.55948 13.8908 3.6201 13.968 3.69636L15.948 5.59636C16.0266 5.67176 16.089 5.76129 16.1316 5.85983C16.1742 5.95838 16.1961 6.06401 16.1961 6.17068C16.1961 6.27736 16.1742 6.38299 16.1316 6.48153C16.089 6.58008 16.0266 6.66961 15.948 6.745Z" fill="#32466A"/>
</svg>
