<svg width="105" height="105" viewBox="0 0 105 105" fill="none" xmlns="http://www.w3.org/2000/svg">
<path d="M52.5 0C23.52 0 0 23.52 0 52.5C0 81.48 23.52 105 52.5 105C81.48 105 105 81.48 105 52.5C105 23.52 81.48 0 52.5 0ZM76.86 35.7C76.0725 43.995 72.66 64.155 70.9275 73.4475C70.1925 77.385 68.7225 78.6975 67.3575 78.855C64.3125 79.1175 62.0025 76.86 59.0625 74.9175C54.4425 71.8725 51.8175 69.9825 47.355 67.0425C42.1575 63.63 45.5175 61.74 48.51 58.695C49.2975 57.9075 62.7375 45.675 63 44.5725C63.0365 44.4055 63.0316 44.2322 62.9859 44.0675C62.9401 43.9028 62.8549 43.7518 62.7375 43.6275C62.4225 43.365 62.0025 43.47 61.635 43.5225C61.1625 43.6275 53.8125 48.51 39.48 58.17C37.38 59.5875 35.49 60.3225 33.81 60.27C31.92 60.2175 28.35 59.22 25.6725 58.3275C22.365 57.2775 19.7925 56.7 20.0025 54.8625C20.1075 53.9175 21.42 52.9725 23.8875 51.975C39.2175 45.3075 49.4025 40.8975 54.495 38.7975C69.09 32.7075 72.0825 31.6575 74.0775 31.6575C74.4975 31.6575 75.495 31.7625 76.125 32.2875C76.65 32.7075 76.8075 33.285 76.86 33.705C76.8075 34.02 76.9125 34.965 76.86 35.7Z" fill="#318FFF"/>
</svg>
