<svg width="92" height="106" viewBox="0 0 92 106" fill="none" xmlns="http://www.w3.org/2000/svg">
<path d="M48.3251 0.0894423C54.0997 0 59.8412 0.0530028 65.576 0C65.9235 6.76117 68.3524 13.6482 73.2964 18.4284C78.2304 23.3279 85.2095 25.5706 92 26.3292V44.1149C85.6364 43.9062 79.243 42.5811 73.4685 39.8382C70.9535 38.6987 68.6106 37.2312 66.3173 35.7305C66.2875 48.6367 66.3702 61.5263 66.2346 74.3795C65.8904 80.5544 63.8552 86.6994 60.2681 91.7876C54.4968 100.258 44.4798 105.78 34.1915 105.953C27.8809 106.314 21.5769 104.591 16.1994 101.418C7.28772 96.1571 1.01678 86.5271 0.103443 76.1916C-0.00245174 73.982 -0.0388531 71.7758 0.0504954 69.6192C0.844704 61.215 4.99775 53.1751 11.4441 47.7059C18.7508 41.3356 28.9862 38.3012 38.5696 40.0966C38.659 46.6392 38.3975 53.1751 38.3975 59.7176C34.0195 58.2998 28.9034 58.6973 25.078 61.3574C22.285 63.1694 20.1638 65.9454 19.0586 69.0859C18.1452 71.3252 18.4066 73.8131 18.4596 76.1916C19.5086 83.4397 26.4712 89.5317 33.9036 88.8725C38.831 88.8195 43.5533 85.9573 46.1212 81.7668C46.9518 80.2993 47.8817 78.7986 47.9313 77.0727C48.3649 69.172 48.1928 61.3044 48.2457 53.4037C48.2821 35.598 48.1928 17.8421 48.3284 0.092755L48.3251 0.0894423Z" fill="#318FFF"/>
</svg>
