<svg width="129" height="90" viewBox="0 0 129 90" fill="none" xmlns="http://www.w3.org/2000/svg">
<path d="M126.11 13.8825C124.58 8.45113 120.345 4.19141 114.889 2.68561C104.844 0.00012839 64.461 0.000129039 64.461 0.000129039C64.461 0.000129039 24.1547 -0.064291 14.0046 2.68561C8.5773 4.19543 4.3216 8.45113 2.80775 13.8825C0.903355 24.1775 -0.0428026 34.5973 0.00148564 45.0654C-0.0186454 55.4651 0.923486 65.8688 2.80775 76.0994C4.3216 81.5307 8.5773 85.7905 14.0046 87.3204C24.05 90.0059 64.461 90.0059 64.461 90.0059C64.461 90.0059 104.743 90.0059 114.889 87.3204C120.345 85.7905 124.58 81.5348 126.11 76.0994C127.958 65.8688 128.86 55.4651 128.796 45.0654C128.86 34.5973 127.978 24.1775 126.11 13.8825ZM51.561 64.3389V25.7074L85.1758 45.0654L51.561 64.3389Z" fill="#318FFF"/>
</svg>
